<svg id="Layer_1" data-name="Layer 1" xmlns="http://www.w3.org/2000/svg" viewBox="0 0 78.53 47.46"><defs><style>.cls-1{fill:#fff;}</style></defs><title>scattered_clouds</title><path class="cls-1" d="M23.41,72a14.47,14.47,0,0,1-3.19-28.57A9.85,9.85,0,0,1,29.9,31.82a9.77,9.77,0,0,1,5,1.38A21.91,21.91,0,0,1,74,43.1,14.47,14.47,0,0,1,73.2,72ZM29.9,36a5.71,5.71,0,0,0-5.71,5.71,5.64,5.64,0,0,0,.61,2.56,2.07,2.07,0,0,1-1.76,3,10.33,10.33,0,0,0,.39,20.66H73.18a10.33,10.33,0,0,0-.12-20.67l-.73,0a2.07,2.07,0,0,1-2.21-1.93,17.78,17.78,0,0,0-33-8,2.07,2.07,0,0,1-3.23.39A5.67,5.67,0,0,0,29.9,36Z" transform="translate(-9 -24.54)"/></svg>