<svg id="Layer_1" data-name="Layer 1" xmlns="http://www.w3.org/2000/svg" viewBox="0 0 77.43 88.1"><defs><style>.cls-1{fill:#fff;}</style></defs><title>rain</title><path class="cls-1" d="M66.7,48.32a1.77,1.77,0,0,1-1.22-3.06,13.33,13.33,0,0,0,4.19-9.76A13.45,13.45,0,0,0,43,33.1a1.77,1.77,0,0,1-3.49-.63A17,17,0,1,1,67.92,47.84,1.77,1.77,0,0,1,66.7,48.32Z" transform="translate(-10.51 -4.9)"/><path class="cls-1" d="M51,17a1.77,1.77,0,0,1-1.73-1.4L47.37,7.06a1.77,1.77,0,1,1,3.47-.76l1.87,8.57A1.77,1.77,0,0,1,51,17Z" transform="translate(-10.51 -4.9)"/><path class="cls-1" d="M77,33.6a1.77,1.77,0,0,1-.38-3.51l9.12-2a1.77,1.77,0,0,1,.76,3.47l-9.12,2A1.78,1.78,0,0,1,77,33.6Z" transform="translate(-10.51 -4.9)"/><path class="cls-1" d="M67.49,20A1.77,1.77,0,0,1,66,17.28l5-7.8a1.77,1.77,0,1,1,3,1.92l-5,7.8A1.77,1.77,0,0,1,67.49,20Z" transform="translate(-10.51 -4.9)"/><path class="cls-1" d="M38.23,26.4a1.76,1.76,0,0,1-1-.28l-7.8-5a1.77,1.77,0,1,1,1.92-3l7.8,5a1.77,1.77,0,0,1-1,3.27Z" transform="translate(-10.51 -4.9)"/><path class="cls-1" d="M81.49,54.32a1.77,1.77,0,0,1-1-.28l-7.8-5a1.77,1.77,0,0,1,1.92-3l7.8,5a1.77,1.77,0,0,1-1,3.27Z" transform="translate(-10.51 -4.9)"/><path class="cls-1" d="M22.38,74.47a11.93,11.93,0,0,1-2.71-23.53,8.14,8.14,0,0,1,8-9.52,8.08,8.08,0,0,1,4.1,1.11,18,18,0,0,1,32.1,8.13,11.92,11.92,0,0,1-.76,23.81ZM27.69,45a4.59,4.59,0,0,0-4.59,4.59,4.53,4.53,0,0,0,.49,2.06,1.77,1.77,0,0,1-1.51,2.57,8.38,8.38,0,0,0,.31,16.74H63.12A8.38,8.38,0,0,0,63,54.17l-.59,0a1.77,1.77,0,0,1-1.89-1.66A14.47,14.47,0,0,0,33.72,46a1.77,1.77,0,0,1-2.77.33A4.56,4.56,0,0,0,27.69,45Z" transform="translate(-10.51 -4.9)"/><path class="cls-1" d="M37.94,93a1.77,1.77,0,0,1-1.25-3l4.24-4.23a1.77,1.77,0,1,1,2.51,2.51l-4.24,4.23A1.77,1.77,0,0,1,37.94,93Z" transform="translate(-10.51 -4.9)"/><path class="cls-1" d="M23.23,83.36a1.77,1.77,0,0,1-1.25-3l2.67-2.67a1.77,1.77,0,0,1,2.51,2.51l-2.67,2.67A1.77,1.77,0,0,1,23.23,83.36Z" transform="translate(-10.51 -4.9)"/><path class="cls-1" d="M46.73,83.36a1.77,1.77,0,0,1-1.25-3l2.67-2.67a1.77,1.77,0,1,1,2.51,2.51L48,82.84A1.77,1.77,0,0,1,46.73,83.36Z" transform="translate(-10.51 -4.9)"/><path class="cls-1" d="M54.34,87.62a1.77,1.77,0,0,1-1.25-3L60,77.66a1.77,1.77,0,1,1,2.51,2.51L55.6,87.1A1.77,1.77,0,0,1,54.34,87.62Z" transform="translate(-10.51 -4.9)"/><path class="cls-1" d="M28.81,89.48a1.77,1.77,0,0,1-1.25-3l8.79-8.78a1.77,1.77,0,1,1,2.51,2.51L30.06,89A1.77,1.77,0,0,1,28.81,89.48Z" transform="translate(-10.51 -4.9)"/></svg>