<?xml version="1.0" encoding="utf-8"?>
<!-- Generator: Adobe Illustrator 21.1.0, SVG Export Plug-In . SVG Version: 6.00 Build 0)  -->
<svg version="1.1" id="Layer_1" xmlns="http://www.w3.org/2000/svg" xmlns:xlink="http://www.w3.org/1999/xlink" x="0px" y="0px"
	 viewBox="0 0 100 100" style="enable-background:new 0 0 100 100;" xml:space="preserve">
<style type="text/css">
	.st0{fill:#FFFFFF;}
</style>
<path class="st0" d="M65,56.6c-0.5,0-1-0.2-1.4-0.7c-0.6-0.8-0.5-1.9,0.3-2.5c3.4-2.8,5.3-6.8,5.3-11.2c0-7.9-6.5-14.4-14.4-14.4
	c-7.3,0-13.5,5.5-14.3,12.8c-0.1,1-1,1.7-2,1.6c-1-0.1-1.7-1-1.6-2c1-9.1,8.7-16,17.9-16c9.9,0,18,8.1,18,18c0,5.4-2.4,10.5-6.7,14
	C65.8,56.5,65.4,56.6,65,56.6z"/>
<path class="st0" d="M54.8,21.3c-1,0-1.8-0.8-1.8-1.8V9.8c0-1,0.8-1.8,1.8-1.8s1.8,0.8,1.8,1.8v9.7C56.6,20.5,55.8,21.3,54.8,21.3z"
	/>
<path class="st0" d="M32.1,44h-9.7c-1,0-1.8-0.8-1.8-1.8s0.8-1.8,1.8-1.8h9.7c1,0,1.8,0.8,1.8,1.8S33.1,44,32.1,44z"/>
<path class="st0" d="M87.2,44h-9.7c-1,0-1.8-0.8-1.8-1.8s0.8-1.8,1.8-1.8h9.7c1,0,1.8,0.8,1.8,1.8S88.2,44,87.2,44z"/>
<path class="st0" d="M70.7,28.1c-0.5,0-0.9-0.2-1.3-0.5c-0.7-0.7-0.7-1.8,0-2.5l7-7c0.7-0.7,1.8-0.7,2.5,0c0.7,0.7,0.7,1.8,0,2.5
	l-7,7C71.7,27.9,71.2,28.1,70.7,28.1z"/>
<path class="st0" d="M38.9,28.1c-0.5,0-0.9-0.2-1.3-0.5l-7-7c-0.7-0.7-0.7-1.8,0-2.5c0.7-0.7,1.8-0.7,2.5,0l7,7
	c0.7,0.7,0.7,1.8,0,2.5C39.8,27.9,39.3,28.1,38.9,28.1z"/>
<path class="st0" d="M77.7,66.9c-0.5,0-0.9-0.2-1.3-0.5l-7-7c-0.7-0.7-0.7-1.8,0-2.5c0.7-0.7,1.8-0.7,2.5,0l7,7
	c0.7,0.7,0.7,1.8,0,2.5C78.6,66.7,78.2,66.9,77.7,66.9z"/>
<path class="st0" d="M18.8,83.6c-6.9,0-12.5-5.7-12.5-12.6c0-6,4.1-11,9.8-12.3c-0.1-0.5-0.1-1-0.1-1.5c0-4.7,3.8-8.6,8.6-8.6
	c1.6,0,3.1,0.4,4.4,1.2C32.4,45,38,42.3,44,42.3c9.5,0,17.4,7,18.9,16.2c6.6,0.4,11.7,5.9,11.7,12.6c0,6.9-5.6,12.5-12.5,12.6
	L18.8,83.6z M24.5,52.2c-2.7,0-5,2.2-5,5c0,0.8,0.2,1.5,0.5,2.2c0.3,0.5,0.3,1.2-0.1,1.7c-0.3,0.5-0.9,0.9-1.5,0.9
	c-4.8,0.2-8.6,4.1-8.6,9c0,4.9,4,9,9,9l43.3,0c4.9,0,8.9-4.1,8.9-9c0-5-4-9-9-9c-0.2,0-0.4,0-0.6,0c-0.5,0-0.9-0.1-1.3-0.4
	c-0.4-0.3-0.6-0.8-0.6-1.2C59,52.2,52.2,45.9,44,45.9c-5.5,0-10.4,2.8-13.2,7.5c-0.3,0.5-0.8,0.8-1.3,0.9c-0.5,0.1-1.1-0.1-1.5-0.5
	C27,52.7,25.8,52.2,24.5,52.2z"/>
</svg>
