<svg id="Layer_1" data-name="Layer 1" xmlns="http://www.w3.org/2000/svg" viewBox="0 0 77 77"><defs><style>.cls-1{fill:#fff;}</style></defs><title>clear_sky</title><path class="cls-1" d="M50.52,71.78A20.26,20.26,0,1,1,70.78,51.52,20.29,20.29,0,0,1,50.52,71.78Zm0-36.47A16.21,16.21,0,1,0,66.73,51.52,16.23,16.23,0,0,0,50.52,35.31Z" transform="translate(-12 -13)"/><path class="cls-1" d="M50.5,28a2,2,0,0,1-2-2V15a2,2,0,1,1,4.05,0V26A2,2,0,0,1,50.5,28Z" transform="translate(-12 -13)"/><path class="cls-1" d="M50.5,90a2,2,0,0,1-2-2V77a2,2,0,0,1,4.05,0V88A2,2,0,0,1,50.5,90Z" transform="translate(-12 -13)"/><path class="cls-1" d="M25,53.53H14a2,2,0,0,1,0-4.05H25a2,2,0,1,1,0,4.05Z" transform="translate(-12 -13)"/><path class="cls-1" d="M87,53.53H76a2,2,0,0,1,0-4.05H87a2,2,0,0,1,0,4.05Z" transform="translate(-12 -13)"/><path class="cls-1" d="M68.44,35.58A2,2,0,0,1,67,32.13l7.85-7.85a2,2,0,1,1,2.87,2.87L69.87,35A2,2,0,0,1,68.44,35.58Z" transform="translate(-12 -13)"/><path class="cls-1" d="M24.71,79.32a2,2,0,0,1-1.43-3.46L31.13,68A2,2,0,0,1,34,70.87l-7.85,7.85A2,2,0,0,1,24.71,79.32Z" transform="translate(-12 -13)"/><path class="cls-1" d="M32.56,35.58A2,2,0,0,1,31.13,35l-7.85-7.85a2,2,0,0,1,2.87-2.87L34,32.13a2,2,0,0,1-1.43,3.46Z" transform="translate(-12 -13)"/><path class="cls-1" d="M76.29,79.32a2,2,0,0,1-1.43-.59L67,70.87A2,2,0,0,1,69.87,68l7.85,7.85a2,2,0,0,1-1.43,3.46Z" transform="translate(-12 -13)"/></svg>