<?xml version="1.0" encoding="utf-8"?>
<!-- Generator: Adobe Illustrator 21.1.0, SVG Export Plug-In . SVG Version: 6.00 Build 0)  -->
<svg version="1.1" id="Layer_1" xmlns="http://www.w3.org/2000/svg" xmlns:xlink="http://www.w3.org/1999/xlink" x="0px" y="0px"
	 viewBox="0 0 100 100" style="enable-background:new 0 0 100 100;" xml:space="preserve">
<style type="text/css">
	.st0{fill:#FFFFFF;}
</style>
<path class="st0" d="M16.3,74.9C10.1,74.8,5,69.7,5,63.5c0-5.4,3.7-9.9,8.8-11.1c-0.1-0.5-0.1-0.9-0.1-1.4c0-4.3,3.5-7.7,7.7-7.7
	c1.4,0,2.8,0.4,4,1.1c3.2-4.3,8.3-6.8,13.7-6.8c8.5,0,15.7,6.3,17,14.6c5.9,0.4,10.6,5.3,10.6,11.4c0,6.2-5.1,11.3-11.3,11.4
	L16.3,74.9z M21.4,46.5c-2.5,0-4.5,2-4.5,4.5c0,0.7,0.2,1.4,0.5,2c0.2,0.5,0.2,1.1-0.1,1.6c-0.3,0.5-0.8,0.8-1.3,0.8
	c-4.4,0.2-7.8,3.7-7.8,8.1c0,4.5,3.6,8.1,8.1,8.1l39.1,0c4.4,0,8-3.7,8-8.1c0-4.5-3.6-8.1-8.1-8.1c-0.2,0-0.3,0-0.6,0
	c-0.4,0-0.9-0.1-1.2-0.4c-0.3-0.3-0.5-0.7-0.6-1.1c-0.5-7.3-6.6-13.1-13.9-13.1c-4.9,0-9.4,2.5-12,6.7c-0.3,0.4-0.7,0.7-1.2,0.8
	c-0.5,0.1-1-0.1-1.3-0.5C23.8,47,22.6,46.5,21.4,46.5z"/>
<path class="st0" d="M40.6,35c1-1.2,3.9-4.7,7.1-4.7c1.4,0,2.8,0.4,4,1.1c3.2-4.3,8.3-6.8,13.7-6.8c8.5,0,15.7,6.3,17,14.6
	C88.3,39.5,93,44.5,93,50.5c0,6.2-5.1,11.3-11.3,11.4c0,0-9.9,0-12.6,0c-1.8,0-2-3.1,0.4-3.2c3.3-0.1,12.2,0,12.2,0
	c4.4,0,8-3.7,8-8.1c0-4.5-3.6-8.1-8.1-8.1c-0.2,0-0.3,0-0.6,0c-0.4,0-0.9-0.1-1.2-0.4c-0.3-0.3-0.5-0.7-0.6-1.1
	c-0.5-7.3-6.6-13.1-13.9-13.1c-4.9,0-9.4,2.5-12,6.7c-0.3,0.4-0.7,0.7-1.2,0.8c-0.5,0.1-1-0.1-1.3-0.5c-0.8-0.9-2-1.3-3.2-1.3
	c-1.6,0-3.3,1.3-4.6,2.7C41.8,37.7,39.8,36.8,40.6,35z"/>
<path class="st0" d="M76,57.6c-0.4,0-0.8-0.2-1.1-0.5c-0.6-0.6-0.6-1.7,0-2.3l9.1-9.1c0.6-0.6,1.7-0.6,2.3,0c0.6,0.6,0.6,1.7,0,2.3
	l-9.1,9.1C76.8,57.4,76.4,57.6,76,57.6z"/>
<path class="st0" d="M67.9,57.6c-0.4,0-0.8-0.2-1.1-0.5c-0.6-0.6-0.6-1.7,0-2.3l11-11c0.6-0.6,1.7-0.6,2.3,0c0.6,0.6,0.6,1.7,0,2.3
	l-11,11C68.7,57.4,68.3,57.6,67.9,57.6z"/>
<path class="st0" d="M83.5,57.6c-0.4,0-0.8-0.2-1.1-0.5c-0.6-0.6-0.6-1.7,0-2.3l3.6-3.6c0.6-0.6,1.7-0.6,2.3,0
	c0.6,0.6,0.6,1.7,0,2.3l-3.6,3.6C84.3,57.4,83.9,57.6,83.5,57.6z"/>
<path class="st0" d="M47.2,38.6c-0.4,0-0.8-0.2-1.1-0.5c-0.6-0.6-0.6-1.7,0-2.3l1.3-1.1c0.6-0.6,1.7-0.6,2.3,0
	c0.6,0.6,0.6,1.7,0,2.3l-1.3,1.1C48,38.5,47.6,38.6,47.2,38.6z"/>
<path class="st0" d="M52,41.5c-0.4,0-0.8-0.2-1.1-0.5c-0.6-0.6-0.6-1.7,0-2.3l8.4-8.4c0.6-0.6,1.7-0.6,2.3,0c0.6,0.6,0.6,1.7,0,2.3
	L53.1,41C52.8,41.3,52.4,41.5,52,41.5z"/>
<path class="st0" d="M63.2,54.2c-0.4,0-0.8-0.2-1.1-0.5c-0.6-0.6-0.6-1.7,0-2.3l13.3-13.3c0.6-0.6,1.7-0.6,2.3,0
	c0.6,0.6,0.6,1.7,0,2.3L64.3,53.7C64,54,63.6,54.2,63.2,54.2z"/>
<path class="st0" d="M58.6,50.6c-0.4,0-0.8-0.2-1.1-0.5c-0.6-0.6-0.6-1.7-0.2-2.1L72.3,33c0.8-0.8,1.8-0.8,2.5-0.2s0.6,1.7,0,2.3
	L59.8,50.1C59.5,50.4,59,50.6,58.6,50.6z"/>
<path class="st0" d="M56.7,44.6c-0.4,0-0.8-0.2-1.1-0.5c-0.6-0.6-0.6-1.7,0-2.3l12-12c0.6-0.6,1.7-0.6,2.3,0s0.6,1.7,0,2.3l-12,12
	C57.5,44.4,57.1,44.6,56.7,44.6z"/>
</svg>
