<svg id="Layer_1" data-name="Layer 1" xmlns="http://www.w3.org/2000/svg" viewBox="0 0 78 69.05"><defs><style>.cls-1{fill:#fff;}</style></defs><title>shower_rain</title><path class="cls-1" d="M75.75,63.66H73.58l-47.27,0A14.35,14.35,0,0,1,23.14,35.3a9.78,9.78,0,0,1,9.62-11.53,9.71,9.71,0,0,1,5,1.37A21.77,21.77,0,0,1,76.6,35a14.36,14.36,0,0,1-.83,28.69Zm-2.17-4.11h2.16A10.26,10.26,0,0,0,75.63,39c-.24,0-.5,0-.72,0a2.05,2.05,0,0,1-2.19-1.92,17.66,17.66,0,0,0-32.73-8,2.05,2.05,0,0,1-3.21.38,5.67,5.67,0,0,0-9.08,6.54,2.05,2.05,0,0,1-1.75,3,10.24,10.24,0,0,0,.37,20.48h2.11Z" transform="translate(-12 -16.54)"/><path class="cls-1" d="M43.81,85.59a2.05,2.05,0,0,1-1.45-3.5l5.14-5.13a2.05,2.05,0,1,1,2.9,2.9L45.26,85A2,2,0,0,1,43.81,85.59Z" transform="translate(-12 -16.54)"/><path class="cls-1" d="M25.95,73.89a2.05,2.05,0,0,1-1.45-3.5l3.24-3.24a2.05,2.05,0,1,1,2.9,2.9L27.4,73.29A2,2,0,0,1,25.95,73.89Z" transform="translate(-12 -16.54)"/><path class="cls-1" d="M54.48,73.89A2.05,2.05,0,0,1,53,70.38l3.24-3.24a2.05,2.05,0,1,1,2.9,2.9l-3.24,3.24A2,2,0,0,1,54.48,73.89Z" transform="translate(-12 -16.54)"/><path class="cls-1" d="M63.72,79.05a2.05,2.05,0,0,1-1.45-3.5l8.41-8.4a2.05,2.05,0,1,1,2.9,2.9l-8.41,8.4A2,2,0,0,1,63.72,79.05Z" transform="translate(-12 -16.54)"/><path class="cls-1" d="M32.72,81.31a2.05,2.05,0,0,1-1.45-3.5L41.94,67.15a2.05,2.05,0,1,1,2.9,2.9L34.17,80.71A2,2,0,0,1,32.72,81.31Z" transform="translate(-12 -16.54)"/></svg>