<svg id="Layer_1" data-name="Layer 1" xmlns="http://www.w3.org/2000/svg" viewBox="0 0 79 69.94"><defs><style>.cls-1{fill:#fff;}</style></defs><title>thunderstorm</title><path class="cls-1" d="M74.57,63.26h-2.2a2.08,2.08,0,0,1,0-4.16h2.19a10.39,10.39,0,0,0-.11-20.78c-.25,0-.51,0-.73,0a2.08,2.08,0,0,1-2.22-1.94,17.89,17.89,0,0,0-33.15-8.09,2.08,2.08,0,0,1-3.25.39,5.74,5.74,0,0,0-9.2,6.62,2.08,2.08,0,0,1-1.78,3,10.38,10.38,0,0,0,.38,20.74h2.14a2.08,2.08,0,0,1,0,4.16H24.49a14.54,14.54,0,0,1-3.21-28.71A9.91,9.91,0,0,1,31,22.86a9.83,9.83,0,0,1,5.07,1.39,22,22,0,0,1,39.34,10,14.55,14.55,0,0,1-.84,29.06Z" transform="translate(-10 -15.54)"/><path class="cls-1" d="M30,82.8a2.08,2.08,0,0,1-1.47-3.55l8.93-8.94H32a2.08,2.08,0,0,1-1.43-3.59l13.1-12.44a2.08,2.08,0,0,1,2.86,3l-9.32,8.85h5.19a2.08,2.08,0,0,1,1.47,3.55L31.44,82.19A2.07,2.07,0,0,1,30,82.8Z" transform="translate(-10 -15.54)"/><path class="cls-1" d="M51.15,75.5a2.08,2.08,0,0,1-1.47-3.55L58.61,63H53.23a2.08,2.08,0,0,1-1.44-3.58L64.9,47a2.08,2.08,0,1,1,2.87,3l-9.34,8.92h5.2a2.08,2.08,0,0,1,1.47,3.55L52.62,74.89A2.07,2.07,0,0,1,51.15,75.5Z" transform="translate(-10 -15.54)"/><path class="cls-1" d="M40.55,85.47a2.08,2.08,0,0,1-1.47-3.55l5.21-5.2a2.08,2.08,0,1,1,2.94,2.94L42,84.87A2.07,2.07,0,0,1,40.55,85.47Z" transform="translate(-10 -15.54)"/><path class="cls-1" d="M21.63,78.61a2.08,2.08,0,0,1-1.47-3.55l3.28-3.28a2.08,2.08,0,1,1,2.94,2.94L23.1,78A2.07,2.07,0,0,1,21.63,78.61Z" transform="translate(-10 -15.54)"/><path class="cls-1" d="M58.85,81.52A2.08,2.08,0,0,1,57.38,78l10.81-10.8a2.08,2.08,0,1,1,2.94,2.94L60.32,80.92A2.07,2.07,0,0,1,58.85,81.52Z" transform="translate(-10 -15.54)"/></svg>