<svg id="Layer_1" data-name="Layer 1" xmlns="http://www.w3.org/2000/svg" viewBox="0 0 84 84.77"><defs><style>.cls-1{fill:#fff;}</style></defs><title>snow</title><path class="cls-1" d="M76.65,59.28H74.31l-50.9,0A15.46,15.46,0,0,1,20,28.74,10.54,10.54,0,0,1,30.35,16.32a10.46,10.46,0,0,1,5.39,1.48A23.44,23.44,0,0,1,77.57,28.38a15.47,15.47,0,0,1-.9,30.9Zm-2.34-4.42h2.33a11,11,0,0,0-.12-22.09c-.26,0-.54,0-.78,0a2.21,2.21,0,0,1-2.36-2.06,19,19,0,0,0-35.25-8.61,2.21,2.21,0,0,1-3.46.41,6.1,6.1,0,0,0-9.78,7A2.21,2.21,0,0,1,23,32.78a11,11,0,0,0,.4,22.06h2.27Z" transform="translate(-8 -8.54)"/><path class="cls-1" d="M28.78,89.12a2.21,2.21,0,0,1-1.56-3.77L40.9,71.67A2.21,2.21,0,1,1,44,74.8L30.34,88.47A2.2,2.2,0,0,1,28.78,89.12Z" transform="translate(-8 -8.54)"/><path class="cls-1" d="M42.46,89.12a2.2,2.2,0,0,1-1.56-.65L27.22,74.79a2.21,2.21,0,0,1,3.13-3.12L44,85.35a2.21,2.21,0,0,1-1.56,3.77Z" transform="translate(-8 -8.54)"/><path class="cls-1" d="M46.67,82.25H24.57a2.21,2.21,0,0,1,0-4.43h0l22.11,0a2.2,2.2,0,1,1,0,4.4Z" transform="translate(-8 -8.54)"/><path class="cls-1" d="M35.62,93.3h0a2.2,2.2,0,0,1-2.21-2.2V69a2.22,2.22,0,0,1,2.21-2.22h0A2.22,2.22,0,0,1,37.84,69V91.1A2.2,2.2,0,0,1,35.62,93.3Z" transform="translate(-8 -8.54)"/><path class="cls-1" d="M59.44,79.32a2.21,2.21,0,0,1-1.11-4.12L71.7,67.42a2.21,2.21,0,1,1,2.22,3.82L60.55,79A2.2,2.2,0,0,1,59.44,79.32Z" transform="translate(-8 -8.54)"/><path class="cls-1" d="M72.92,79.12a2.2,2.2,0,0,1-1.05-.27l-13.6-7.38a2.21,2.21,0,1,1,2.11-3.89L74,75a2.21,2.21,0,0,1-1.06,4.15Z" transform="translate(-8 -8.54)"/><rect class="cls-1" x="55.92" y="54.92" width="4.42" height="19.67" rx="2.21" ry="2.21"/></svg>