<?xml version="1.0" encoding="utf-8"?>
<!-- Generator: Adobe Illustrator 21.1.0, SVG Export Plug-In . SVG Version: 6.00 Build 0)  -->
<svg version="1.1" id="Layer_1" xmlns="http://www.w3.org/2000/svg" xmlns:xlink="http://www.w3.org/1999/xlink" x="0px" y="0px"
	 viewBox="0 0 100 100" style="enable-background:new 0 0 100 100;" xml:space="preserve">
<style type="text/css">
	.st0{fill:#FFFFFF;}
</style>
<path class="st0" d="M89.3,34.4C89.3,34.4,89.3,34.4,89.3,34.4C89.3,34.4,89.3,34.4,89.3,34.4C89.3,34.4,89.3,34.4,89.3,34.4
	C89.3,34.4,89.3,34.4,89.3,34.4c0,0-14.8-2.6-19.3-2.7c-4.5,0-14.5,2.7-19.3,2.7S36,31.7,31.3,31.7S12,34.4,12,34.4
	c-1.8,0-2.7-1.4-2.7-2.7c0-1.4,1.1-2.7,2.7-2.7c0,0,0,0,0,0c0,0,0,0,0,0c0,0,0,0,0,0s0,0,0,0c0,0,12.8-2.7,19.3-2.7S46.2,29,50.7,29
	s14.2-2.7,19.3-2.7c5.1,0,18.1,2.6,19.3,2.7c1.4,0,2.7,1.2,2.7,2.7C92,33.1,90.9,34.4,89.3,34.4z"/>
<path class="st0" d="M89.3,45.2C89.3,45.2,89.3,45.2,89.3,45.2C89.3,45.2,89.3,45.2,89.3,45.2C89.3,45.2,89.3,45.2,89.3,45.2
	C89.3,45.2,89.3,45.2,89.3,45.2c0,0-14.8-2.6-19.3-2.7s-14.5,2.7-19.3,2.7S36,42.5,31.3,42.5S12,45.2,12,45.2
	c-1.8,0-2.7-1.4-2.7-2.7c0-1.4,1.1-2.7,2.7-2.7c0,0,0,0,0,0c0,0,0,0,0,0c0,0,0,0,0,0s0,0,0,0c0,0,12.8-2.7,19.3-2.7
	s14.9,2.6,19.3,2.7c4.5,0,14.2-2.7,19.3-2.7c5.1,0,18.1,2.6,19.3,2.7c1.4,0,2.7,1.2,2.7,2.7C92,44,90.9,45.2,89.3,45.2z"/>
<path class="st0" d="M89.3,56C89.3,56,89.3,56,89.3,56C89.3,56,89.3,56,89.3,56C89.3,56,89.3,56,89.3,56C89.3,56,89.3,56,89.3,56
	c0,0-14.8-2.6-19.3-2.7S55.5,56,50.7,56S36,53.4,31.3,53.3S12,56,12,56c-1.8,0-2.7-1.4-2.7-2.7c0-1.4,1.1-2.7,2.7-2.7c0,0,0,0,0,0
	c0,0,0,0,0,0c0,0,0,0,0,0s0,0,0,0c0,0,12.8-2.7,19.3-2.7s14.9,2.6,19.3,2.7c4.5,0,14.2-2.7,19.3-2.7c5.1,0,18.1,2.6,19.3,2.7
	c1.4,0,2.7,1.2,2.7,2.7C92,54.8,90.9,56,89.3,56z"/>
<path class="st0" d="M89.3,67.2C89.3,67.2,89.3,67.2,89.3,67.2C89.3,67.2,89.3,67.2,89.3,67.2C89.3,67.2,89.3,67.2,89.3,67.2
	C89.3,67.2,89.3,67.2,89.3,67.2c0,0-14.8-2.6-19.3-2.7s-14.5,2.7-19.3,2.7c-4.8,0-14.7-2.6-19.3-2.7S12,67.2,12,67.2
	c-1.8,0-2.7-1.4-2.7-2.7c0-1.4,1.1-2.7,2.7-2.7c0,0,0,0,0,0c0,0,0,0,0,0c0,0,0,0,0,0s0,0,0,0c0,0,12.8-2.7,19.3-2.7
	s14.9,2.6,19.3,2.7c4.5,0,14.2-2.7,19.3-2.7c5.1,0,18.1,2.6,19.3,2.7c1.4,0,2.7,1.2,2.7,2.7C92,66,90.9,67.2,89.3,67.2z"/>
<path class="st0" d="M89.3,78.2C89.3,78.2,89.3,78.2,89.3,78.2C89.3,78.2,89.3,78.2,89.3,78.2C89.3,78.2,89.3,78.2,89.3,78.2
	C89.3,78.2,89.3,78.2,89.3,78.2c0,0-14.8-2.6-19.3-2.7s-14.5,2.7-19.3,2.7c-4.8,0-14.7-2.6-19.3-2.7S12,78.2,12,78.2
	c-1.8,0-2.7-1.4-2.7-2.7c0-1.4,1.1-2.7,2.7-2.7c0,0,0,0,0,0c0,0,0,0,0,0c0,0,0,0,0,0s0,0,0,0c0,0,12.8-2.7,19.3-2.7
	s14.9,2.6,19.3,2.7s14.2-2.7,19.3-2.7c5.1,0,18.1,2.6,19.3,2.7c1.4,0,2.7,1.2,2.7,2.7C92,77,90.9,78.2,89.3,78.2z"/>
</svg>
